<svg width="16" height="16" viewBox="0 0 16 16" fill="none" xmlns="http://www.w3.org/2000/svg">
<path d="M12.5906 4.32104C13.9133 4.34709 15.1704 4.94874 15.7123 6.34748C15.8738 6.7644 15.9546 7.21419 15.9546 7.66173C15.9546 8.10928 15.8738 8.55907 15.7123 8.97598C15.2902 10.0655 14.5643 10.8807 12.8202 10.9167C11.0761 10.9528 9.67685 10.0605 8.52344 8.5955C8.52372 8.59577 8.88244 8.19592 8.90814 8.16761C9.84151 9.17051 10.6422 10.1053 12.2094 10.3185C12.7278 9.6354 12.856 9.42327 13.7673 9.76302C13.9508 9.83143 14.2184 9.83303 14.2898 9.73202C14.3415 9.65896 14.3394 9.59368 14.3119 9.44156C14.2852 9.29383 14.2676 9.22125 14.3612 9.1673C14.4525 9.14325 14.5058 9.02454 14.3563 8.90532C14.3928 8.90422 14.5035 8.88367 14.5304 8.79787C14.5684 8.68389 14.3351 8.48042 14.4813 8.39636C14.615 8.34221 14.6973 8.36189 14.7845 8.31128C14.9746 8.20085 14.7857 8.06711 14.672 7.87364C14.5836 7.72322 14.4785 7.55554 14.5074 7.27976C14.5254 7.1076 14.5545 6.95756 14.4746 6.66686C14.2308 6.68996 13.853 6.56704 13.853 6.56704C14.1599 6.64346 14.6137 6.62562 14.8507 6.19428C14.3952 6.12202 14.0891 5.54371 13.6105 5.31544C13.3085 5.17136 12.9537 5.10481 12.5906 5.10014L12.1917 4.71055L12.5906 4.32104V4.32104Z" fill="#66C3D0"/>
<path d="M3.36408 11.0382C3.2864 11.0403 3.20983 11.0405 3.13436 11.0388V11.0389L3.12077 11.0385L3.1152 11.0383L3.09296 11.0377L3.08741 11.0375C3.07632 11.0371 3.06524 11.0367 3.05419 11.0363L3.04867 11.036L3.04315 11.0358L3.03764 11.0355L3.03212 11.0353C1.72589 10.9748 0.761782 10.317 0.242226 8.97586C-0.0807499 8.14219 -0.080734 7.18103 0.242226 6.34735C0.563463 5.51816 1.19893 4.84513 2.1479 4.5571C2.46772 4.4601 2.80034 4.41355 3.13436 4.40662C5.11705 4.36562 6.27769 5.26282 7.43114 6.72788C7.42975 6.72636 7.06164 7.13863 7.0464 7.15572C7.04725 7.15479 7.04709 7.15472 7.04611 7.1554C6.91086 7.00788 6.78091 6.86668 6.65212 6.73225C5.8688 5.90064 5.08863 5.18762 3.74515 5.00488C2.53501 4.80966 1.62755 5.36509 1.53753 5.76823C1.40075 6.38078 1.40031 6.47171 1.36095 6.54666C1.31882 6.62688 1.11889 6.71129 0.746019 6.81415C0.541987 6.87043 0.498574 6.89114 0.523272 6.9146C0.570227 6.95918 0.901101 6.95211 1.02722 6.95202C1.209 6.95186 1.53426 6.96639 1.77674 6.95709L1.24475 7.09663C1.22625 7.20293 1.24241 7.2619 1.30999 7.31678C1.42332 7.4088 1.43872 7.39766 1.3229 7.61754C1.20708 7.83742 0.953896 8.15493 0.953896 8.26315C0.953896 8.37156 1.09175 8.47455 1.20177 8.45628C1.37771 8.42704 1.48494 8.35374 1.4765 8.52703C1.46959 8.66869 1.39819 8.76077 1.44805 8.81157C1.49791 8.86237 1.57011 8.87668 1.57011 8.87668C1.57011 8.87668 1.46394 8.94268 1.46128 8.96415C1.45861 8.98563 1.48205 9.06293 1.55034 9.1026C1.61863 9.14228 1.63417 9.25087 1.62912 9.3453C1.6252 9.41893 1.50088 9.49279 1.48205 9.60373C1.46323 9.71466 1.62577 10.0498 1.98411 10.0058C2.34244 9.96182 2.55521 9.9151 2.68169 9.8764C2.80816 9.83771 2.87746 9.85549 2.9795 9.99737C3.07675 10.1326 3.12934 10.2795 3.13404 10.289H3.49311L3.76295 10.6429L3.36394 11.0382H3.36408V11.0382Z" fill="#E31E24"/>
<path fill-rule="evenodd" clip-rule="evenodd" d="M7.08612 7.66188C6.24544 8.60304 5.26845 10.2046 3.58098 10.2893H3.49383H3.48635H3.47749H3.46838H3.45905H3.44951H3.43979H3.42992H3.41988H3.40973H3.39949H3.38915H3.37876H3.36833H3.35786H3.34741H3.33698H3.32659H3.31625H3.30601H3.29586H3.28583H3.27595H3.26623H3.25669H3.24736H3.23825H3.22939H3.22079H3.21248H3.20449H3.19681H3.18948H3.18252H3.17595H3.16979H3.16404H3.15876H3.15394H3.14962H3.14579H3.1425H3.13978H3.13762H3.13604H3.13508H3.13477L3.13508 11.0392L3.36466 11.0384C3.74062 11.028 4.142 10.9726 4.56664 10.874C6.65755 10.3886 8.21633 8.4527 8.87017 7.66188L7.97814 7.2666L7.08612 7.66188V7.66188Z" fill="url(#paint0_linear)"/>
<path fill-rule="evenodd" clip-rule="evenodd" d="M7.08594 7.66172L7.97796 8.05703L8.86999 7.66172C9.48787 6.96999 10.1586 5.94502 11.1646 5.3895C11.5798 5.20367 12.0935 5.09373 12.5914 5.10013V4.32095C12.1908 4.31306 11.7841 4.358 11.3895 4.44963C8.9051 5.02634 7.73977 6.87095 7.08594 7.66172V7.66172Z" fill="url(#paint1_linear)"/>
<defs>
<linearGradient id="paint0_linear" x1="3.36011" y1="10.2021" x2="6.98984" y2="7.63121" gradientUnits="userSpaceOnUse">
<stop stop-color="#E31E24"/>
<stop offset="1" stop-color="#5B5B5B"/>
</linearGradient>
<linearGradient id="paint1_linear" x1="12.5914" y1="5.19241" x2="8.89081" y2="7.69254" gradientUnits="userSpaceOnUse">
<stop stop-color="#66C3D0"/>
<stop offset="1" stop-color="#5B5B5B"/>
</linearGradient>
</defs>
</svg>
